<mxfile host="app.diagrams.net" modified="2021-11-20T03:26:24.182Z" agent="5.0 (Windows NT 10.0; Win64; x64) AppleWebKit/537.36 (KHTML, like Gecko) Chrome/95.0.4638.69 Safari/537.36 Edg/95.0.1020.53" etag="eZNFavULMzCVxkvXYBKb" version="15.7.3" type="github">
  <diagram id="JWJoEXaRD_jsocl_R48W" name="第 1 页">
    <mxGraphModel dx="837" dy="506" grid="1" gridSize="10" guides="1" tooltips="1" connect="1" arrows="1" fold="1" page="1" pageScale="1" pageWidth="827" pageHeight="1169" math="0" shadow="0">
      <root>
        <mxCell id="0" />
        <mxCell id="1" parent="0" />
        <mxCell id="4Zf8RBvmtkc0HvUedJaG-3" value="" style="edgeStyle=orthogonalEdgeStyle;rounded=0;orthogonalLoop=1;jettySize=auto;html=1;" edge="1" parent="1" source="4Zf8RBvmtkc0HvUedJaG-1" target="4Zf8RBvmtkc0HvUedJaG-2">
          <mxGeometry relative="1" as="geometry" />
        </mxCell>
        <mxCell id="4Zf8RBvmtkc0HvUedJaG-31" value="" style="edgeStyle=orthogonalEdgeStyle;rounded=0;orthogonalLoop=1;jettySize=auto;html=1;entryX=0;entryY=0.5;entryDx=0;entryDy=0;" edge="1" parent="1" source="4Zf8RBvmtkc0HvUedJaG-1" target="4Zf8RBvmtkc0HvUedJaG-30">
          <mxGeometry relative="1" as="geometry">
            <Array as="points">
              <mxPoint x="280" y="310" />
            </Array>
          </mxGeometry>
        </mxCell>
        <mxCell id="4Zf8RBvmtkc0HvUedJaG-1" value="setup" style="rounded=1;whiteSpace=wrap;html=1;" vertex="1" parent="1">
          <mxGeometry x="220" y="170" width="120" height="60" as="geometry" />
        </mxCell>
        <mxCell id="4Zf8RBvmtkc0HvUedJaG-13" style="edgeStyle=orthogonalEdgeStyle;rounded=0;orthogonalLoop=1;jettySize=auto;html=1;" edge="1" parent="1" source="4Zf8RBvmtkc0HvUedJaG-2" target="4Zf8RBvmtkc0HvUedJaG-8">
          <mxGeometry relative="1" as="geometry" />
        </mxCell>
        <mxCell id="4Zf8RBvmtkc0HvUedJaG-2" value="new&amp;nbsp;validation" style="whiteSpace=wrap;html=1;rounded=1;" vertex="1" parent="1">
          <mxGeometry x="370" y="170" width="120" height="60" as="geometry" />
        </mxCell>
        <mxCell id="4Zf8RBvmtkc0HvUedJaG-17" value="" style="edgeStyle=orthogonalEdgeStyle;rounded=0;orthogonalLoop=1;jettySize=auto;html=1;" edge="1" parent="1" source="4Zf8RBvmtkc0HvUedJaG-4" target="4Zf8RBvmtkc0HvUedJaG-16">
          <mxGeometry relative="1" as="geometry" />
        </mxCell>
        <mxCell id="4Zf8RBvmtkc0HvUedJaG-4" value="CastMode" style="whiteSpace=wrap;html=1;rounded=1;" vertex="1" parent="1">
          <mxGeometry x="680" y="170" width="120" height="60" as="geometry" />
        </mxCell>
        <mxCell id="4Zf8RBvmtkc0HvUedJaG-20" value="" style="edgeStyle=orthogonalEdgeStyle;rounded=0;orthogonalLoop=1;jettySize=auto;html=1;entryX=0.5;entryY=1;entryDx=0;entryDy=0;startArrow=none;" edge="1" parent="1" source="4Zf8RBvmtkc0HvUedJaG-25" target="4Zf8RBvmtkc0HvUedJaG-26">
          <mxGeometry relative="1" as="geometry">
            <mxPoint x="880" y="310" as="targetPoint" />
          </mxGeometry>
        </mxCell>
        <mxCell id="4Zf8RBvmtkc0HvUedJaG-23" value="" style="edgeStyle=orthogonalEdgeStyle;rounded=0;orthogonalLoop=1;jettySize=auto;html=1;" edge="1" parent="1" source="4Zf8RBvmtkc0HvUedJaG-6" target="4Zf8RBvmtkc0HvUedJaG-22">
          <mxGeometry relative="1" as="geometry" />
        </mxCell>
        <mxCell id="4Zf8RBvmtkc0HvUedJaG-38" style="edgeStyle=orthogonalEdgeStyle;rounded=0;orthogonalLoop=1;jettySize=auto;html=1;entryX=1;entryY=0.5;entryDx=0;entryDy=0;" edge="1" parent="1" source="4Zf8RBvmtkc0HvUedJaG-6" target="4Zf8RBvmtkc0HvUedJaG-30">
          <mxGeometry relative="1" as="geometry" />
        </mxCell>
        <mxCell id="4Zf8RBvmtkc0HvUedJaG-6" value="ConnectPattern" style="whiteSpace=wrap;html=1;rounded=1;" vertex="1" parent="1">
          <mxGeometry x="680" y="280" width="120" height="60" as="geometry" />
        </mxCell>
        <mxCell id="4Zf8RBvmtkc0HvUedJaG-14" style="edgeStyle=orthogonalEdgeStyle;rounded=0;orthogonalLoop=1;jettySize=auto;html=1;entryX=0.5;entryY=0;entryDx=0;entryDy=0;" edge="1" parent="1" source="4Zf8RBvmtkc0HvUedJaG-4" target="4Zf8RBvmtkc0HvUedJaG-6">
          <mxGeometry relative="1" as="geometry">
            <Array as="points" />
          </mxGeometry>
        </mxCell>
        <mxCell id="4Zf8RBvmtkc0HvUedJaG-15" style="edgeStyle=orthogonalEdgeStyle;rounded=0;orthogonalLoop=1;jettySize=auto;html=1;entryX=0;entryY=0.5;entryDx=0;entryDy=0;" edge="1" parent="1" source="4Zf8RBvmtkc0HvUedJaG-8" target="4Zf8RBvmtkc0HvUedJaG-4">
          <mxGeometry relative="1" as="geometry" />
        </mxCell>
        <mxCell id="4Zf8RBvmtkc0HvUedJaG-8" value="new&amp;nbsp;request&amp;nbsp;dialog" style="whiteSpace=wrap;html=1;rounded=1;" vertex="1" parent="1">
          <mxGeometry x="520" y="170" width="120" height="60" as="geometry" />
        </mxCell>
        <mxCell id="4Zf8RBvmtkc0HvUedJaG-16" value="right&amp;nbsp;bottom&lt;br&gt;validation" style="whiteSpace=wrap;html=1;rounded=1;" vertex="1" parent="1">
          <mxGeometry x="885" y="170" width="120" height="60" as="geometry" />
        </mxCell>
        <mxCell id="4Zf8RBvmtkc0HvUedJaG-18" value="need&amp;nbsp;request" style="text;html=1;align=center;verticalAlign=middle;resizable=0;points=[];autosize=1;strokeColor=none;fillColor=none;" vertex="1" parent="1">
          <mxGeometry x="800" y="180" width="90" height="20" as="geometry" />
        </mxCell>
        <mxCell id="4Zf8RBvmtkc0HvUedJaG-21" value="need&amp;nbsp;not&amp;nbsp;to&amp;nbsp;request" style="text;html=1;align=center;verticalAlign=middle;resizable=0;points=[];autosize=1;strokeColor=none;fillColor=none;" vertex="1" parent="1">
          <mxGeometry x="740" y="240" width="120" height="20" as="geometry" />
        </mxCell>
        <mxCell id="4Zf8RBvmtkc0HvUedJaG-22" value="emit" style="whiteSpace=wrap;html=1;rounded=1;" vertex="1" parent="1">
          <mxGeometry x="680" y="400" width="120" height="60" as="geometry" />
        </mxCell>
        <mxCell id="4Zf8RBvmtkc0HvUedJaG-24" value="no&amp;nbsp;pwd" style="text;html=1;align=center;verticalAlign=middle;resizable=0;points=[];autosize=1;strokeColor=none;fillColor=none;" vertex="1" parent="1">
          <mxGeometry x="740" y="360" width="50" height="20" as="geometry" />
        </mxCell>
        <mxCell id="4Zf8RBvmtkc0HvUedJaG-26" value="ValidaCode" style="whiteSpace=wrap;html=1;rounded=1;" vertex="1" parent="1">
          <mxGeometry x="370" y="400" width="120" height="60" as="geometry" />
        </mxCell>
        <mxCell id="4Zf8RBvmtkc0HvUedJaG-37" style="edgeStyle=orthogonalEdgeStyle;rounded=0;orthogonalLoop=1;jettySize=auto;html=1;" edge="1" parent="1" source="4Zf8RBvmtkc0HvUedJaG-30" target="4Zf8RBvmtkc0HvUedJaG-6">
          <mxGeometry relative="1" as="geometry" />
        </mxCell>
        <mxCell id="4Zf8RBvmtkc0HvUedJaG-30" value="new&amp;nbsp;CheckDialog" style="whiteSpace=wrap;html=1;rounded=1;" vertex="1" parent="1">
          <mxGeometry x="370" y="280" width="120" height="60" as="geometry" />
        </mxCell>
        <mxCell id="4Zf8RBvmtkc0HvUedJaG-33" value="connect" style="text;html=1;align=center;verticalAlign=middle;resizable=0;points=[];autosize=1;strokeColor=none;fillColor=none;" vertex="1" parent="1">
          <mxGeometry x="550" y="290" width="60" height="20" as="geometry" />
        </mxCell>
        <mxCell id="4Zf8RBvmtkc0HvUedJaG-25" value="pin&amp;nbsp;or&amp;nbsp;pwd" style="text;html=1;align=center;verticalAlign=middle;resizable=0;points=[];autosize=1;strokeColor=default;fillColor=none;" vertex="1" parent="1">
          <mxGeometry x="550" y="470" width="70" height="20" as="geometry" />
        </mxCell>
        <mxCell id="4Zf8RBvmtkc0HvUedJaG-35" value="" style="edgeStyle=orthogonalEdgeStyle;rounded=0;orthogonalLoop=1;jettySize=auto;html=1;endArrow=none;" edge="1" parent="1" source="4Zf8RBvmtkc0HvUedJaG-6">
          <mxGeometry relative="1" as="geometry">
            <mxPoint x="680" y="310" as="sourcePoint" />
            <mxPoint x="620" y="480" as="targetPoint" />
            <Array as="points">
              <mxPoint x="650" y="310" />
              <mxPoint x="650" y="480" />
            </Array>
          </mxGeometry>
        </mxCell>
      </root>
    </mxGraphModel>
  </diagram>
</mxfile>
